<?xml version="1.0" encoding="UTF-8"?>
<svg width="16" height="16" viewBox="0 0 16 16" fill="none" xmlns="http://www.w3.org/2000/svg">
  <path class="cls-1" d="M8.1,2.4h0c.8,0,5,0,6.1.3.3,0,.6.3.9.5.2.2.4.6.5.9.1.4.2.9.2,1.4h0c0,.1,0,.4,0,.4h0c0,1,0,1.9,0,2.1h0c0,.3,0,1.2,0,2.1h0c0,.1,0,.2,0,.2,0,.6-.1,1.1-.2,1.6,0,.3-.3.6-.5.9-.2.2-.6.4-.9.5-1.2.3-5.6.3-6.2.3h-.1c-.3,0-1.6,0-2.9,0h-.2s0,0,0,0h-.2s-.2,0-.2,0c-1.1,0-2.2-.1-2.7-.3-.3,0-.6-.3-.9-.5-.2-.2-.4-.6-.5-.9-.1-.4-.2-1-.2-1.6h0c0-.1,0-.2,0-.2C0,9.4,0,8.7,0,8.1H0c0-.3,0-1.1,0-1.9h0c0-.1,0-.2,0-.2h0c0-.1,0-.4,0-.4h0c0-.6.1-1.1.2-1.5,0-.3.3-.6.5-.9.2-.2.6-.4.9-.5.5-.1,1.5-.2,2.7-.3h.2s.2,0,.2,0h0s.2,0,.2,0c1,0,1.9,0,2.9,0h.2ZM6.4,5.6v4.8l4.2-2.4-4.2-2.4Z" fill="#32498D"/>
</svg>