<?xml version="1.0" encoding="UTF-8"?><svg id="top" xmlns="http://www.w3.org/2000/svg" xmlns:xlink="http://www.w3.org/1999/xlink" viewBox="0 0 575 449"><defs><symbol id="apple" viewBox="0 0 23.98 25.22"><g id="apple-2"><path d="M12.83,24.3c1.9.51,3.78.29,5.62-.67,1.72-.92,3.01-2.94,3.86-4.79.6-1.3,1.04-2.61,1.31-4,.6-3.04.47-6-.57-8.82-.64-1.67-1.86-2.7-3.53-3.17-.7-.19-1.43-.27-2.14-.39-.14-.03-.26-.09-.4-.18-.41-.36-.82-.71-1.23-1.06C14.31.07,12.64-.28,10.77.24c-.71.2-1.39.54-2.04.87-2.03,1.04-3.8,2.43-5.29,4.18-.82.94-1.54,1.99-2.13,3.1-.37.65-.71,1.35-.93,2.07-.55,1.85-.52,3.64.15,5.37.83,2.16,2.42,3.51,4.49,4.3.78.3,1.6.5,2.41.65.14.03.15.07.08.2-.14.3-.31.58-.53.84-.84,1.06-1.89,1.7-3.15,1.84-.18.03-.27.14-.28.33-.02.36,0,.69-.04,1.04-.01.13.05.19.18.19.23-.03.46-.06.69-.11.95-.19,1.8-.62,2.59-1.24.14-.1,1.1-1.14,1.19-1.26.24-.31.48-.67.63-1.06.05-.11.08-.1.16-.02.85.72,1.76,1.95,2.94,2.49.16.04.55.19.93.3" style="fill:#cf788f;"/></g></symbol><symbol id="bread" viewBox="0 0 38.01 72.33"><g id="bread-2"><path d="M36.52,72.24c-.18.14-.54.09-.73.04-3.51-.79-11.5-9.32-16.54-19.16-.25-.46-.44-.86-.29-1.14.13-.23.84-1,4.47-1.13l1.38-.05-.56-1.27c-.33-.76-1.19-.85-3.77-1.13-1.4-.15-4-.43-4.53-.82-1.04-.78-2.46-3.72-2.81-4.96-.25-.87-.14-1.18,0-1.37.28-.37,1.31-.97,4.69-.91l1.59.03-.74-1.41c-.29-.55-.73-.63-3.6-1.15-1.44-.26-4.12-.74-4.6-1.03-.73-.49-3.11-4.21-3.39-6.42l-.04-.37c-.05-.39-.15-1.11-.05-1.2.19-.19,1.09-.46,5.1-.1l1.59.14-.65-1.46c-.31-.69-1.12-.91-2.74-1.37-1.45-.4-3.41-.95-4.98-1.88C3,21.23-1.06,2.3.26.42.77.04,1.33-.09,2,.06c5.01,1.14,12.96,16.68,21.38,33.13l.47.93c9.79,19.24,17.52,34.41,12.67,38.12Z" style="fill:#cdb697;"/></g></symbol><symbol id="can" viewBox="0 0 24.99 32.54"><g id="can-2"><path d="M14.79,26.11c-4.2,1.06-7.38,2.75-9.07,4.29L.05,7.25C-.44,5.24,2.71,2.16,8.66.66c3.91-.98,7.53-.86,9.46.3.65.4,1.05.88,1.19,1.45l5.68,23.2c-.92-.26-2.1-.42-3.52-.42-1.88,0-4.15.27-6.69.91h.01Z" style="fill:#9fadd3;"/><path d="M6.57,32.1c.92-.99,3.6-2.93,8.67-4.21,5.05-1.28,8.33-.84,9.59-.4-.78.85-2.88,2.39-6.64,3.62-.63.2-1.28.39-1.95.55-1.36.34-2.68.58-3.92.74-2.89.32-4.84.01-5.75-.3" style="fill:#9fadd3;"/></g></symbol><symbol id="carrot" viewBox="0 0 31.51 62.18"><g id="carrot-2"><path d="M13.35,52.53c-.13.16-.26.13-.37-.02,0,.76-.09,1.45-.44,1.89-.28.36-1.03-1.02-1.15-.69-.19.5-.27,5.3-1.45,5.28-.29-.03-.39-1.14-.68-.97-.25.28-.97,5-1.87,4.03-.16-.17.05-1.33-.45-.97-3.1,1.88-8.77.79-6.08-.66.86-.5,3.33-1.57,3.62-1.93.19-.3-.87-.47-.9-.77-.11-1.3,4.83-1.6,4.17-3.63-.06-.22-.93-.11-.96-.41,0-.2,2.14-3.15,2.42-3.7.53-1.03,1.09-2.53,1.06-2.84-.07-.42-1.6,2.31-1.85,2.78-.63,1.09-1.81,1.26-1.78.59.23-3-1.36,1.26-2.86.51-.57-.25.72-1.53.37-1.59-4.72-1.06-5.2-5.76-2.5-2.86.48.5,2.22-.16,3.04-.58.29-.17-.33-.52-.36-.83-.17-1.14.73-.56,1.02-.34.32.14,1.92,1.41,2.24,1.16.22-.2-.65-1.05-.3-1.39.41-.31.51.6.95.8,1.09.47,2.51-.76,3.01-1.9-1.67-.71,3.17,1.07,1.57.58l.52,8.46h.01Z" style="fill:#7cae9c;"/><path d="M31.49,3.32c-.19,2.64-2.35,8.61-3.1,11.53-1.06,3.86-2.22,8.52-3.36,12.94l-1.9-.39s-.88.45-.47,1l2.02.76c-.4,1.53-.8,3.03-1.2,4.43l-5.35-1.27c-2.04-.3-.63.92-.63.92l5.48,2.09c-.79,2.67-2.15,7.1-4.18,8.67-1.61,1.14-5.46.3-5.46.3l-1.82-.58s-3.52-1.4-4.2-3.01c-.5-1.44-.3-3.5.6-5.97.03-.11,2.07-3.76,2.28-4.08.2-.31,3.68-6.49,3.81-6.63.03-.03.26-.37.58-.85.57-.89,1.15-1.85,1.73-2.78l3.21,1.21s.94-.3.63-.92l-2.97-1.69c.88-1.45,1.77-2.93,2.64-4.42l5.07-9.15,1.02-1.75c.8-1.25,2.77-3.62,4.17-3.68,1.03,0,1.53,1.44,1.4,3.33" style="fill:#f58033;"/></g></symbol><symbol id="lettuce" viewBox="0 0 46.32 44.19"><g id="lettuce-2"><path d="M.19,23.1c.89.18.46,2.57.46,2.57.22,2.21,2.65,1.03,2.65,1.03.32.16.41,1.32.41,1.32-.37.87,1.43.71,1.43.71.36.97,2.04-.72,2.04-.72-.42,1.89.94,1.88.94,1.88.75,1.42,1.94-.02,1.94-.02,0,0,.14-1.5-.25-1.7,0,0-1.07-1.58-1.2-4,0,0,1.06-1.83.58-2.07,0,0-.76-1.16.61-2.58l1.28-3.03s1.5,1.01,1.78.36.73-1.73.73-1.73c0,0-1.25-.36-.06-1.34s2.23-1.51,2.51-2.16c.28-.65.83-1.95.83-1.95,0,0,.75-1.2,1.57-1.32s1.57-1.05,1.85-1.7c.41-.97.91-1.84,1.68-2.42.2-.15.42-.29.64-.35.66-.19,1.16-.47,1.35-.9.03-.07.04-.14.04-.22v-.25c-.02-.24.03-.38.8-.17.51.14.96.02,1.32-.17C17.28.06,8.83,14.56,8.83,14.56c-2.31,4.09-3.92,1.97-3.92,1.97-3.3-.86-2.15,2.34-3.38,2.51s-1.14,1.78-1.14,1.78c-.75.41-.18,2.26-.18,2.26M25.21,2.84c-1.23-.27-.66.23-.83.67s-.66.74-1.32.97c-.84.29-1.42,1.17-1.87,2.08-.13.26-.26.53-.36.8-.25.66-1.01,1.62-1.83,1.78s-1.56,1.38-1.56,1.38c0,0-.51,1.32-.77,1.97-.25.66-1.32,1.22-2.49,2.26-1.16,1.03.07,1.31.07,1.31,0,0-.42,1.1-.68,1.76-.25.66-1.51-.14-1.51-.14l-1.19,3.07c-1.57,1.37-.61,2.55-.61,2.55.49.21-.56,2.06-.56,2.06.08.87.35,2.22,1.26,2.08.02.6.02,1.21.05,1.81.04.75.7,1.14.67,2.03-.03.76-.38.85-.9,1.18-.14.09-1.47,1.04-1.56.89.35.59.47,1.4.88,1.92.13.18,1.33.86,1.38.59l-.35,1.9c1.24-.75.04,2.84.04,2.84.99-1.4,1.61.33,2.37.52.59.15,1.43-.76,1.9-1.24.14,1.59,1.22-.22,1.23-.24.44-.74.64-2.35,1.66-1.63.63.44.44,1.59.13,2.4-.44,2.12,1.21,1.8,1.7,1.5,1.09-.66,2.31.32,3.1.95.37.29.75.56,1.09.87.6.55.48.6,1.18.19.53-.31,2.97,0,3.22-.63.42-1.1,1.22-1.66,1.22-1.66.82-.16,2.02-3.27,2.02-3.27l-.52-.22-.66.33s.07-.18.17-.52c.17-1.37.48-3.34-.85-3.65-.26-.95-.85-3.15-1.8-3.2.82-2.65.73-5.38-.97-6.83.55-.09,1.1-.21,1.64-.31.1-.94.3-1.98.25-2.89-.03-.51-.25-.88-.08-1.34.16-.45.76-1.01,1.05-1.39-.25-.19-.49-.38-.73-.57.85-1.29,1.44-2.24,1.07-3.74-.19-.76-.8-1.11-1.09-1.81-.37-.88-.36-1.86-.38-2.89-.03-1.44.04-2.97-.17-4.36,2.35,1.04,1.18,4.39,1.72,6.87.31,1.43,1.93,2.38,1.41,4.25-.16.56-.84,1.54-1.17,2.02.24.19.49.38.73.57-.29.39-.88.92-1.04,1.38-.17.47.03.82.07,1.34.06.91-.15,1.96-.25,2.9-.55.11-1.1.22-1.64.31,1.7,1.42,1.81,4.21.97,6.83.7-.09,1.08.68,1.33,1.33.08.21.36,1.85.48,1.89,2.08.51.64,4.25.64,4.25l1.57-.6,2.04.63.56,1.52c1.99-1.7,2.48-.47,2.48-.47l1.92-.96,1.36-.7.85-2.2-.79-1.63,2.03-4.51,1.24-.75.89-4.74c-4.55,2.91-8.9-1.53-8.9-1.53-1.11.03-1.82-8.22-1.82-8.22.47-4.16-1.75-4.34-1.75-4.34-.31-2.3-1.94-3.9-2.88-4.64l-.89-2.36.12-2.77-.9-.64-1.32.96-.42.59-.33.37s-.83,1.18-2.06.9" style="fill:#89ad46;"/></g></symbol><clipPath id="clippath"><rect x="116.38" y="358.51" width="24.99" height="32.54" style="fill:none;"/></clipPath><clipPath id="clippath-1"><rect x="264.63" y="345.35" width="24.99" height="32.54" style="fill:none;"/></clipPath><clipPath id="clippath-2"><rect x="549.63" y="248.35" width="24.99" height="32.54" style="fill:none;"/></clipPath><clipPath id="clippath-3"><rect x="387.63" y="387.35" width="24.99" height="32.54" style="fill:none;"/></clipPath><clipPath id="clippath-4"><rect x="523.63" y="385.35" width="24.99" height="32.54" style="fill:none;"/></clipPath><clipPath id="clippath-5"><rect x="186.07" y="419" width="24.99" height="32.54" style="fill:none;"/></clipPath><clipPath id="clippath-6"><rect x="268.07" y="446" width="24.99" height="32.54" style="fill:none;"/></clipPath><clipPath id="clippath-7"><rect x="444.07" y="226" width="24.99" height="32.54" style="fill:none;"/></clipPath><clipPath id="clippath-8"><rect x="309.25" y="220.99" width="31.52" height="62.18" style="fill:none;"/></clipPath><clipPath id="clippath-9"><rect x="450.25" y="309.99" width="31.52" height="62.18" style="fill:none;"/></clipPath><clipPath id="clippath-10"><rect x="223.58" y="435.08" width="31.52" height="62.18" style="fill:none;"/></clipPath><clipPath id="clippath-11"><rect x="221.06" y="363.99" width="31.52" height="62.18" style="fill:none;"/></clipPath><clipPath id="clippath-12"><rect x="487.08" y="247.99" width="31.52" height="62.18" style="fill:none;"/></clipPath><clipPath id="clippath-13"><rect x="347.08" y="403.99" width="31.52" height="62.18" style="fill:none;"/></clipPath><clipPath id="clippath-14"><rect x="482.08" y="414.99" width="31.52" height="62.18" style="fill:none;"/></clipPath><clipPath id="clippath-15"><rect x="11.81" y="405.63" width="46.33" height="44.2" style="fill:none;"/></clipPath><clipPath id="clippath-16"><rect x="299.81" y="361.63" width="46.33" height="44.2" style="fill:none;"/></clipPath><clipPath id="clippath-17"><rect x="420.83" y="404.27" width="46.33" height="44.2" style="fill:none;"/></clipPath><clipPath id="clippath-18"><rect x="557.83" y="417.27" width="46.33" height="44.2" style="fill:none;"/></clipPath><clipPath id="clippath-19"><rect x="134.01" y="436.27" width="46.33" height="44.2" style="fill:none;"/></clipPath><clipPath id="clippath-20"><rect x="210.01" y="296.27" width="46.33" height="44.2" style="fill:none;"/></clipPath><clipPath id="clippath-21"><rect x="329.01" y="304.27" width="46.33" height="44.2" style="fill:none;"/></clipPath><clipPath id="clippath-22"><rect x="521.1" y="156.27" width="46.33" height="44.2" style="fill:none;"/></clipPath><clipPath id="clippath-23"><rect x="74.41" y="405.12" width="38" height="72.33" style="fill:none;"/></clipPath><clipPath id="clippath-24"><rect x="167.41" y="350.12" width="38" height="72.33" style="fill:none;"/></clipPath><clipPath id="clippath-25"><rect x="373.41" y="227.12" width="38" height="72.33" style="fill:none;"/></clipPath><clipPath id="clippath-26"><rect x="296.77" y="433.91" width="38" height="72.33" style="fill:none;"/></clipPath><clipPath id="clippath-27"><rect x="270.88" y="273.12" width="38" height="72.33" style="fill:none;"/></clipPath><clipPath id="clippath-28"><rect x="393.88" y="316.12" width="38" height="72.33" style="fill:none;"/></clipPath></defs><g style="clip-path:url(#clippath);"><use width="24.99" height="32.54" transform="translate(141.81 390.87) rotate(-180)" xlink:href="#can"/></g><g style="clip-path:url(#clippath-1);"><use width="24.99" height="32.54" transform="translate(290.06 377.71) rotate(-180)" xlink:href="#can"/></g><g style="clip-path:url(#clippath-2);"><use width="24.99" height="32.54" transform="translate(575.06 280.71) rotate(-180)" xlink:href="#can"/></g><g style="clip-path:url(#clippath-3);"><use width="24.99" height="32.54" transform="translate(413.06 419.71) rotate(-180)" xlink:href="#can"/></g><g style="clip-path:url(#clippath-4);"><use width="24.99" height="32.54" transform="translate(549.06 417.71) rotate(-180)" xlink:href="#can"/></g><g style="clip-path:url(#clippath-5);"><use width="24.99" height="32.54" transform="translate(185.63 451.36) scale(1 -1)" xlink:href="#can"/></g><g style="clip-path:url(#clippath-6);"><use width="24.99" height="32.54" transform="translate(267.63 478.36) scale(1 -1)" xlink:href="#can"/></g><g style="clip-path:url(#clippath-7);"><use width="24.99" height="32.54" transform="translate(443.63 258.36) scale(1 -1)" xlink:href="#can"/></g><use width="23.98" height="25.22" transform="translate(148.02 370.81) scale(1 -1)" xlink:href="#apple"/><use width="23.98" height="25.22" transform="translate(286.52 419.14) rotate(-180)" xlink:href="#apple"/><use width="23.98" height="25.22" transform="translate(487.52 203.13) rotate(-180)" xlink:href="#apple"/><use width="23.98" height="25.22" transform="translate(541.52 356.14) rotate(-180)" xlink:href="#apple"/><g style="clip-path:url(#clippath-8);"><use width="31.51" height="62.18" transform="translate(307.42 282.33) scale(1 -1)" xlink:href="#carrot"/></g><g style="clip-path:url(#clippath-9);"><use width="31.51" height="62.18" transform="translate(448.42 371.33) scale(1 -1)" xlink:href="#carrot"/></g><g style="clip-path:url(#clippath-10);"><use width="31.51" height="62.18" transform="translate(221.75 496.42) scale(1 -1)" xlink:href="#carrot"/></g><g style="clip-path:url(#clippath-11);"><use width="31.51" height="62.18" transform="translate(254.41 425.33) rotate(-180)" xlink:href="#carrot"/></g><g style="clip-path:url(#clippath-12);"><use width="31.51" height="62.18" transform="translate(520.43 309.33) rotate(-180)" xlink:href="#carrot"/></g><g style="clip-path:url(#clippath-13);"><use width="31.51" height="62.18" transform="translate(380.43 465.33) rotate(-180)" xlink:href="#carrot"/></g><g style="clip-path:url(#clippath-14);"><use width="31.51" height="62.18" transform="translate(515.43 476.33) rotate(-180)" xlink:href="#carrot"/></g><g style="clip-path:url(#clippath-15);"><use width="46.32" height="44.19" transform="translate(11.47 449.69) scale(1 -1)" xlink:href="#lettuce"/></g><g style="clip-path:url(#clippath-16);"><use width="46.32" height="44.19" transform="translate(299.47 405.69) scale(1 -1)" xlink:href="#lettuce"/></g><g style="clip-path:url(#clippath-17);"><use width="46.32" height="44.19" transform="translate(420.49 448.33) scale(1 -1)" xlink:href="#lettuce"/></g><g style="clip-path:url(#clippath-18);"><use width="46.32" height="44.19" transform="translate(557.49 461.33) scale(1 -1)" xlink:href="#lettuce"/></g><g style="clip-path:url(#clippath-19);"><use width="46.32" height="44.19" transform="translate(180.68 480.33) rotate(-180)" xlink:href="#lettuce"/></g><g style="clip-path:url(#clippath-20);"><use width="46.32" height="44.19" transform="translate(256.68 340.33) rotate(-180)" xlink:href="#lettuce"/></g><g style="clip-path:url(#clippath-21);"><use width="46.32" height="44.19" transform="translate(375.68 348.33) rotate(-180)" xlink:href="#lettuce"/></g><g style="clip-path:url(#clippath-22);"><use width="46.32" height="44.19" transform="translate(567.77 200.33) rotate(-180)" xlink:href="#lettuce"/></g><g style="clip-path:url(#clippath-23);"><use width="38.01" height="72.33" transform="translate(73.34 477.4) scale(1 -1)" xlink:href="#bread"/></g><g style="clip-path:url(#clippath-24);"><use width="38.01" height="72.33" transform="translate(166.34 422.4) scale(1 -1)" xlink:href="#bread"/></g><g style="clip-path:url(#clippath-25);"><use width="38.01" height="72.33" transform="translate(372.34 299.4) scale(1 -1)" xlink:href="#bread"/></g><g style="clip-path:url(#clippath-26);"><use width="38.01" height="72.33" transform="translate(295.7 506.2) scale(1 -1)" xlink:href="#bread"/></g><g style="clip-path:url(#clippath-27);"><use width="38.01" height="72.33" transform="translate(309.95 345.4) rotate(-180)" xlink:href="#bread"/></g><g style="clip-path:url(#clippath-28);"><use width="38.01" height="72.33" transform="translate(432.95 388.4) rotate(-180)" xlink:href="#bread"/></g></svg>