<?xml version="1.0" encoding="UTF-8"?><svg id="Layer_1" xmlns="http://www.w3.org/2000/svg" viewBox="0 0 1029.52 390.36"><path d="M500.22,261.98c-7.56.39-16,6.55-15.7,16.64.25,8.58,6.92,15.59,15.21,15.54,10.42.88,17.07-8.18,17.07-16.04,0-8.29-8.23-16.57-16.58-16.15Z" style="fill:#6079b8; stroke-width:0px;"/><path d="M601.79,260.42c-10.19-.8-16.39,8.06-16.39,15.34,0,8.36,5.69,15.97,16.15,16.24,8.78.23,16.18-7.18,16.19-15.9,0-8.22-7.32-16.58-15.95-15.69Z" style="fill:#6079b8; stroke-width:0px;"/><path d="M646.66,126.06c-.88-.69-1.76-.45-2.58-.43-7.74.21-15.47.46-23.2.98-11.9.8-23.86.44-35.79.83-18.47.6-36.95,1.38-55.43,1.55-15.16.14-30.29,1.52-45.46,1.17-8.19-.09-16.4-.43-24.61,1.04-.05,0-.09,0-.14-.01,0,.01,0,.02,0,.03-.17.03-.34.05-.51.08-.07,2.21-.27,4.31.23,6.63,1.68,0,3.27-.09,4.85.02,2.09.16,4.26-.63,6.28.49,0,0,0,0,0,0,.98,5.38,4.1,10.23,4.27,16.04h-14.38c-.84-.81-1.2-1.78-1.37-2.98-.3-2.07-.82-4.12-1.38-6.15-1.32-4.76-2.8-9.48-4.06-14.26-1.68-6.42-3.15-12.89-4.86-19.3-.33-1.26-1.2-2.53-2.71-2.81-4-.76-7.54-2.82-11.45-3.85-5.35-1.41-10.4-3.72-15.73-5.25-2.03-.58-4.49-.85-5.96-2.85-1.04-1.41-2.4-2.19-4.09-2.82-3.56-1.32-4.84-.28-7.34,2.23-2.07,2.08-2.21,5.51-1.01,7.78,2.26,4.29,8.18,5.41,12.27,1.39,1.7-.21,3.2.33,4.81.89,7.01,2.47,14.13,4.61,21.1,7.18,1.31.48,3.23.82,3.83,2.56,1.1,3.19,2.53,6.35,3.02,9.64.58,3.84,1.95,7.43,2.76,11.19,1.32,6.13,3.84,12.01,5.06,18.15,1.55,7.79,4.17,15.28,5.95,22.99,2.1,9.07,4.79,18.01,7.16,27.02,1.01,3.85,2.38,7.59,3.09,11.55.64,3.52,1.97,6.91,2.9,10.39.93,3.49,1.52,7.09,2.63,10.52,2.04,6.3,3.47,12.76,5.27,19.12h0s0,0,0,0c-.25,1.55,0,2.88,1.37,3.57,13.49.8,26.72-1.33,40.01-.82h0c.02-.14.03-.27.05-.41,2.46-.02,4.93.08,7.39.1,1.23-.01,2.46-.03,3.69-.05,1.14-.05,2.27-.13,3.4-.28,9.84-1.26,19.69-.35,29.53-.76.53-.02,1.07.07,1.6.1,11.86-.18,23.72-.04,35.57-.91,4.66-.34,9.36-.12,14.04-.17.91,0,1.86.14,2.69-.73.13-1.78.25-3.66-.11-5.36-.89-.96-1.87-.71-2.76-.68-8.42.29-16.83.17-25.26.63-18.89,1.02-37.83.48-56.74,1.4-13.02.63-26.1.26-39.15.36-1.51.01-2.98.08-4.5.5-1.75.49-3.79.63-4.97-.86-1.47-5.63-2.85-10.89-4.32-16.5,3.82-.27,7.45-.53,11.09-.78,14.06-.99,28.15-.13,42.24-1.1,15.11-1.04,30.3-.17,45.45-1.11,11.71-.73,23.48-.48,35.22-.66,2.5-.04,4.85-1.06,7.63-.79-.36-1.81.72-3.02.86-4.4.46-4.45,1.97-8.65,2.87-13,1.31-6.36,2.58-12.74,4.25-19.01.51-1.92.53-3.9,1.14-5.74,1.35-4.01,2.04-8.17,2.97-12.28.9-3.99,1.36-8.11,2.57-12.01,1.82-5.9,2.74-11.98,4.28-17.93,1.02-3.94,2.28-7.85,2.87-11.86.46-3.11,1.96-6.07,1.6-9.23ZM612.04,133.87c1.15,5.41,4.12,10.32,4.58,16.28h-14.53c-1.8-5.26-3.66-10.68-5.57-16.28h15.52ZM544.87,159.45c4.23-.88,21.22-.78,22.04-.02,2.98,9.49,5.92,18.87,9.1,29.03-7.58.34-14.61-.18-21.61.75-3.26-10.16-6.39-19.94-9.53-29.76ZM547.09,188.67c-.89.7-1.84.42-2.72.46-6.34.26-12.72-.35-19.04.78-1.86.33-2.86-.25-3.58-2.39-2.73-8.08-4.75-16.4-7.91-24.34-.32-.81-.19-1.8-.3-3.09,8.22.26,16.18-1.55,24.28-.76,3.1,9.83,6.19,19.59,9.27,29.35ZM573.56,158.1h23.67c3.08,9.56,6.21,19.27,9.45,29.31-8.17.99-15.81.49-23.57.73-3.15-9.93-6.26-19.72-9.54-30.04ZM592,151.18c-6.58-.05-13.16-.02-20.28-.02-2.28-5.06-4.23-10.57-5.46-16.33,0,0,0,0,0,0,6.78-.07,13.56-.11,20.35-.23,1.46-.03,2.81.08,3.95,1.08.91,4.79,2.73,9.29,4.27,14.13-.5.93-1.45,1.39-2.82,1.38ZM566.65,134.53c-.13.1-.26.22-.39.3.11-.15.24-.24.39-.3ZM559.01,134.78c1.76,5.46,3.47,10.78,5.22,16.23-7.34,1.52-14.21,1.18-21.47,1.28-2.11-5.26-3.56-10.77-5.13-16.84,7.48.72,14.32-.96,21.37-.67ZM507.01,135.71c7.59-.01,15.17-.05,22.76-.05.16,0,.33.26.49.4,1.71,5.27,3.41,10.53,5.32,16.42-8-.22-15.81.99-24.19,1.04-2.38-5.24-3.88-10.88-5.48-16.49h0s0,0,0,0c-.08-.81.14-1.32,1.1-1.33ZM515.38,190.17h-22.87c-2.73-9.46-5.51-19.06-8.38-29.01,7.39-1.03,14.27-.94,21.57-1.03,3.76,9.56,6.19,19.61,9.69,30.04ZM498.68,137.03c1.71,5.52,3.35,10.84,5.06,16.36-7.15.6-13.98-.4-21.13,1.26-2.46-5.6-3.71-11.42-5.19-17.62h21.25ZM461.52,161.5h15.54c2.69,9.17,5.49,18.71,8.36,28.47-.54.97-1.36,1.28-2.46,1.27-4.14-.04-8.28-.02-13.27-.02-2.64-9.59-5.35-19.47-8.17-29.73ZM479.98,229.03c-3.51-9.77-5.29-20.31-8.62-30.77,5.43-.66,10.76-.27,16.22-.52,2.91,10.16,5.76,20.13,8.78,30.67-5.76-.55-10.66.96-16.38.63ZM503.21,227.83c-2.37-9.7-6.05-19.57-8.41-30.55,8.17.58,15.44-.85,22.86-.28,3.19,10.14,6.37,20.22,9.71,30.83h-24.17ZM534.24,226.94c-3.22-10.15-6.32-19.94-9.55-30.11,8.17-1.48,16.28-.5,24.65-1.03,3.28,10.3,6.52,20.51,9.9,31.14h-25ZM587.23,226.02c-6.8-.27-13.63.33-21.02,1.01-2.65-8.56-5.27-17.02-7.89-25.49h0s0,0,0,0c.62-1.86-1.74-3.31-.68-5.27.16-.06.36-.21.58-.22,5.97-.3,11.95.27,17.91-.49,1.08-.14,1.88.49,2.45,1.39,1.42,4.39,2.69,8.84,4.31,13.15,1.64,4.35,2.48,8.93,4.1,13.28.3.82.56,1.54.25,2.65ZM616.92,225.4c-7.07-.13-14.15.9-21.64.42-4.06-9.77-6.33-20.32-9.97-30.44.58-.81,1.47-.66,2.29-.67,6.36-.08,12.73-.09,19.09-.24,1.92-.04,2.59.77,3.09,2.54,1.84,6.47,3.91,12.86,6.16,19.2.99,2.77,2.89,5.81.98,9.19ZM620.41,207.49c-1.32-4.64-3.78-8.71-4.12-13.61h8.05c-.51,4.83-1.6,9.38-3.93,13.61ZM625.88,186.59c-3.38.47-6.49.59-9.62.71-2.46.1-3.47-1.08-3.89-3.13-.61-2.94-1.46-5.79-2.44-8.63-1.56-4.53-2.95-9.12-4.36-13.7-.46-1.48-.78-3.01-1.25-4.87h15.17c2.41,7.89,4.73,15.72,7.2,23.5.75,2.36-.09,4.24-.82,6.11ZM630.63,167.67c-.2-.01-.4-.03-.59-.04-1.2-3.48-2.4-6.96-3.66-10.6,2.28-.49,4.29-.4,6.68-.17-.83,3.7-1.63,7.25-2.43,10.81ZM635,148.68c-.26.23-.75.68-1.3,1.16h-9.2c-2.67-4.86-3.13-10.62-5.76-16.32,6.66-.08,12.94-1.39,19.83-.97-1.19,5.4-2.34,10.62-3.56,16.13Z" style="fill:#f3833c; stroke-width:0px;"/><path d="M566.63,33.58c-.03,1.25.06,2.42.94,3.4h0c1.53.02,2.56.76,3.21,2.13,1.17,2.44,1.67,5.23,3.59,6.68-.42,5.54-1.46,10.61,2.3,14.79-.58,1.1-1.44.77-2.16.85-.48.58-.96,1.17-1.16,1.42-.87,3.93.97,7.76-1.65,11.23,2.81,1.41,5.54,2.7,8.54,3.09.77-.89,1.14-1.69,1.13-2.79-.52-1.62-2.28-2.78-2.5-4.73,1.06-.15,1.81-.04,3.27.56,2.53-9.35,2.93-18.95,4.08-28.6.94.45,1.69.36,1.88.75,1,4.81-1.52,9.15-.36,14.1,2.12-2.61,4.01-4.94,5.9-7.28.62.32.75.83.52,1.51-1.48,4.41-3.25,8.64-6.4,12.21-.72.82-1.73,1.57-1.95,2.91-.63,3.95.22,7.93-.81,11.86,4.71-1.35,7.82-4.47,11.14-7.39.9,1.44.08,2.44-.5,3.31-1.72,2.58-3.51,5.12-5.41,7.57-.73.95-.97,2.13-.35,2.72,3.8,3.68.8,7.34.09,10.95-.73,3.67-1.75,7.29-2.7,11.13,1.07.06,1.74.11,2.42.15.13,0,.25,0,.38.02,0,0,0,0,0,0,2.16-3.95,2.57-9.03,7.92-10.87,1.92-.66,3.22-2.71,2.82-5.17-.28-.45-.56-.9-.9-1.46.62-.9,1.11-1.91.42-3.11,2.16-1.03,3.58-2.91,5.91-3.53-.35-.97-.62-1.74-.65-1.82-.44-3.15,1.71-4.53,2.45-6.7.94-.24,1.96-.51,3.07-.8.82-.96,1.1-2.74,3.03-2.52h0c1.84-1.7,2.83-3.74,2.27-6.27-.66-2.99,1.6-6-.19-9-.59-.65-1.54-1.08-1.98-2.08-.09-1.68-.18-3.43-.27-5.18,0,0,0,0,0,0-1.95-.58-1.68-2.12-1.62-3.31,1.15-2.22,3.39-2.52,4.9-3.7.84-1.93-.96-3.14-1.04-4.61-1.26-.79-2.39-1.5-3.38-2.12-.28-3.16-.54-6.1-.81-9.18-2.13.3-2.92-2.14-5.35-2.01-1.18.54-2.37,2.41-4.34,1.5-1.65,1.47-2.07,3.47-3.14,5.26-2.07.93-2.82-.14-2.94-2.12-.13-2.05.93-4.07.14-6.15-.97-1.06-2.16-.98-3.37-.6-2.2.69-4.14.44-5.92-1.16-1.33-1.21-2.9-2.17-4.19-3.41-.62-.6-1.35-.83-1.8-.47-1.36,1.1-2.9.76-4.38.83-1.43.07-2.7.44-3.6,1.6-2.59,3.35-5.37,6.56-7.36,10.34,1.19,1.61.93,3.47.89,5.27Z" style="fill:#a1cd62; stroke-width:0px;"/><path d="M475.37,126.8c3.03-.87,6.17-.32,9.26-.76,3.82-.54,7.74-.4,11.62-.52,2.46-.08,4.97.28,7.29-.94,0,0,0,0,0,0,0,0,0,0,0,0,5.08-3.02,5.44-8.38,6.36-13.34.76-4.07.06-8.12-.66-12.22-1.21-6.9-3.8-12.96-8.45-18.15-3.81-4.25-12.53-5.77-17.68-3.41-2.85,1.3-4.53,3.86-7.18,5.79-2.53-4.55-6.08-7.7-11.42-8.4-.92.93-.65,1.98-.47,3,1.21,1.26,2.98,1.04,4.37,1.89,1.41.86,2.31,2.18,3.61,2.9.19.98.44,1.81-.28,2.67-1.73-.12-3.27.74-4.9,1.35-6.19,2.3-11.23,9.04-11.13,15.64.1,6.84,3.14,12.59,7.45,17.73,3.2,3.82,6.28,7.87,12.21,6.76Z" style="fill:#da7891; stroke-width:0px;"/><path d="M660.27,39.22c-8.46,4.47-14.13,11.98-20.1,19.03-3.4,4.01-6.36,8.49-8.99,13.13-2.07,3.66-4.39,7.18-5.74,11.36,3.76,2.53,8.03,2.21,12.16,2.94-.08,2.54-1.43,3.89-3.65,4.24-2.17.35-4.44.19-6.6.61-2.92.56-6.17-.19-8.67,2.15-2.82,2.64-4.36,6.07-5.47,9.6-1.33,4.24.81,5.49,4.89,5.62,2.71.09,5.42.02,8.12.02-.73,3.1-2.5,4.26-5.2,4.71-4.17.69-8.27,1.8-12.41,2.7-3.86.84-4.06,4.63-6.64,7.14,1.23.14,1.67.22,2.12.24,10.57.28,21.11-.91,31.82-.43,2.96-5.77,5.81-11.21,8.57-16.69,3.18-6.33,6.35-12.66,9.41-19.05,2.15-4.5,4.4-8.99,6.08-13.66,1.56-4.34,3.41-8.56,4.82-12.98,1.62-5.09,2.5-10.13,2.24-15.39-.22-4.48-3.58-6.97-6.79-5.28Z" style="fill:#d1b696; stroke-width:0px;"/><path d="M500.42,41.04c-.16.7-.74.77-1.3,1.06-3.34,1.75-6.88,3.44-7.55,7.74-.63,4.11.77,7.85,2.6,11.42,1.95,3.81,4.08,7.53,6.07,11.32,3.56,6.78,7.58,13.29,11.41,19.55,3.24.9,5.3-1.31,7.7-2.04.85.39.88,1.1,1.06,1.91-1.94,1.31-3.91,2.65-6.33,4.28,5.23,8.3,9.73,16.9,14.57,25.68,1.95-2.84,1.86-6,2.83-8.8,1.3-3.74,1.75-7.72,3-11.51.84-2.54,1.47-5.49,1.03-8.06-.98-5.67-2.69-11.22-4.08-16.75-1.85-.57-3.67.36-5.35-.51.34-2.57,3.49-1.51,4.21-3.75-1.08-2.84-1.06-6.24-2.81-9.13-4.4.59-8.54,3.25-13.93,2.12,1.93-1.59,3.28-2.49,5.01-2.4,2.39-2.18,5.85-1.89,8.26-3.74-1.55-4.92-2.87-9.87-5.4-14.33-2.03-3.57-4.4-6.71-9.22-6.27-2.43.22-4.87.29-7.31.43-1.39.85-2.57,2.25-4.49,1.79Z" style="fill:#f3833c; stroke-width:0px;"/><path d="M581.38,113.09c1.28-5.07,2.49-10.16,3.73-15.24-.42-2.11,1.85-3.94.73-5.9-4.61.3-9.08.99-13.58-.32-1.22-.36-2.6-.12-3.85-.42-.79-.19-1.97.1-2.26-1.16,0,0,0,0,0,0-8.08-1.07-15.12-4.74-22.53-9.55-3.6,14.95-7.05,29.28-10.59,44.02h17.93c.26-1.06,1.12-.85,1.85-.86,7.62-.16,15.24-.35,22.86-.44,1.41-.02,2.68-.18,3.83-1.01,0,0,0,0,0,0,.27-3.12,1.15-6.1,1.9-9.12Z" style="fill:#9eadd5; stroke-width:0px;"/><path d="M557.29,67.62c.21-6.82-4.71-9.68-8.63-13.14,1.53-1.5,2.82.21,4.17,0,.58-.15,1.22-.19,1.45-.55-.37-5.39-1.92-10.09-6.35-13.57,3.18-.69,8.03,5.44,8.04,9.57h0c.25,2.09.5,4.17.76,6.38,1.37,1.39,3.26,2.47,3.98,4.55,1.39-.33.84-1.47.86-2.27.07-3.1.03-6.2.38-9.34.87,2.35,2.16,4.53,1.86,7.14,0,0,0,0,0,0,0,0,0,0,0,0,.78,4.31.52,8.66.54,12.99,0,1.76.34,3.25,2.09,3.85,1.92.66,2.62-.94,3.41-2.1.15-3.38-.36-6.68.71-10.08.98.15,1.76-.43,2.51-1.06-1.67-3.46-2.73-7-2.41-10.96.12-1.47,1.33-2.63.83-4.31-.51-.2-1.12-.43-1.74-.67-.94-2.29-2.09-4.52-2.19-7.07h0,0c-.88-.98-.97-2.15-.94-3.4.04-1.8.31-3.67-.89-5.27-2.76-.28-5.81,1.37-8.4-1.72-.12-.33-.4-1.11-.75-2.11-1.45.54-2.82,1.04-3.97,1.46-3.87-.98-6.67,1-8.88,3.16-1.47,1.44-3.04,3.82-1.27,6.47.63.94.58,2.3.22,3.37-.78,2.3-1.93,4.48-2.64,6.8-.68,2.2-3.52,2.78-3.9,4.36-.72,2.99-1.44,6.16-1.21,9.62,9.28-2.8,16.59-.48,22.36,7.91Z" style="fill:#a1cd62; stroke-width:0px;"/><path d="M617.56,53.47c1.62,3.04,3.28,6.35,1.22,9.97-.17.3-.17.78-.09,1.13,1.33,5.51-2.79,9.41-3.86,14.05-1.55.48-2.1-1.39-3.65-.76-.71.79-1.61,1.78-1.79,3.68-.79-1.02-1.29-1.66-1.77-2.27.28-1.21,1.21-2.08,1.06-3.18,1.22-1.2,2.71-.13,4.06-.73.04-.03.08-.06.11-.08-.02-1.78,1.48-3.21,1.27-5.11-1.93-.22-2.21,1.56-3.03,2.52-1.11.29-2.13.55-3.07.8-.73,2.17-2.89,3.54-2.45,6.7.03.07.3.84.65,1.82-2.33.62-3.75,2.5-5.91,3.53.69,1.2.2,2.21-.42,3.11.35.56.62,1.01.9,1.46,1.89-2.67,4.04-5.08,6.62-7.14.72-.58,1.24-1.05,2.51-.62.09,4.64-5.58,4.68-6.9,9.7-.3,2.53-2.65,5.37-5.98,5.93-2.13,1.57-2.69,4.23-4.16,6.26-.69.95-1.25,2.2-2.81,1.91h0s0,0,0,0c-.13,0-.25-.02-.38-.02.25,1.26-.84,1.39-1.53,1.93-1.42,1.1-3.06,2.22-1.44,4.61.9-.65,1.81-.87,2.79-1.04,3.12-.54,5.8-2.1,8.48-3.76,4.26-2.64,7.6-6.2,11.05-9.78,5.19-5.39,9.1-11.63,12.78-18.01,3.26-5.65,6.37-11.36,9.95-16.83,1.62-2.47,3.99-4.5,5.01-7.46-.79-.39-1.39-.69-1.98-.99-1.12.61-2.26.83-3.42.27-.56-1.19-.03-2.56-1.08-3.8-1.08-.46-2.62-.33-3.82-1.43-1.02.72-1.96,1.37-3.01,2.11-.02-3.2-2.76-3.84-4.48-5.2-1.16-.11-1.54,1.12-2.5.88-.13,2.04.04,3.88,1.09,5.85Z" style="fill:#a1cd62; stroke-width:0px;"/><path d="M476.71,36.3c2.26.61,2.62-1.65,4.03-1.98,2.29-.58,4.11.53,6.05,1.69-.34.8-.69,1.61-1.04,2.45,3.07,1.6,4.01-2.23,5.93-2.35,1.36.19.98,1.4,1.7,1.73,3.45-1.43,6.17-.18,7.05,3.21,0,0,0,0,0,0,1.92.47,3.1-.93,4.49-1.79-1.05-2.19.24-4.3.19-6.47-.1-4.99,2.06-10.08-1.08-15.15-.74-.58-1.62.48-2.58.64-.47-3.84-.45-7.65-2.46-10.98-1.04.25-1.75.41-2.58.61-1.02-2.65-.96-5.67-2.95-7.72-1.08.3-.85,1.29-1.66,1.82-4.65-1.81-9.52-3.06-14.57-.76.18,2.74,2.3,3.07,3.87,3.91,1.61.86,3.43,1.39,4.58,2.91-.29.82-1.25,1.17-.88,2.47.81,1.47,2.8,1.66,4.35,2.57,1.74,1.03,4.6,1.21,4.22,4.36-.65.46-1.19.85-1.67,1.19.01,2.7,2.86,4.06,3.06,6.58-1.31.49-1.97-.82-3-.56-.74.65-.85,1.88-2.03,2.13-1.42-.57-2.37-2.12-4.01-2.23-1.7.91-.47,2.36-.69,3.45-3.7,1.87-7.98,3.07-8.29,8.28Z" style="fill:#73ae9c; stroke-width:0px;"/><path d="M585.41,86.36c-5.39-7.64-32.96-13.77-39.38-9.27,8.55,8.25,34.24,13.41,39.38,9.27Z" style="fill:#9faed6; stroke-width:0px;"/><path d="M2.61,349.88c0-12.3,10.71-22.63,23.27-22.63,6.63,0,12.75,2.81,17.02,7.33l-6.82,6.12c-2.55-2.93-6.18-4.91-10.2-4.91-7.33,0-13.58,6.5-13.58,14.09s6.25,14.15,13.58,14.15c4.02,0,7.65-1.98,10.2-4.91l6.82,6.12c-4.27,4.46-10.39,7.33-17.02,7.33-12.56,0-23.27-10.39-23.27-22.7Z" style="fill:#010101; stroke-width:0px;"/><path d="M81.41,364.92h-19.51l-2.81,6.88h-10.52l17.85-43.8h10.52l17.85,43.8h-10.58l-2.81-6.88ZM78.16,356.95l-6.5-16-6.5,16h13Z" style="fill:#010101; stroke-width:0px;"/><path d="M103.73,328.01h9.37l13.58,24.74,13.52-24.74h9.44v43.8h-9.44v-27.29l-13.52,24.74-13.58-24.74v27.29h-9.37v-43.8Z" style="fill:#010101; stroke-width:0px;"/><path d="M162,328.01h19.7c9.5,0,16.51,6.12,16.51,14.79s-7.01,14.79-16.51,14.79h-10.33v14.22h-9.37v-43.8ZM180.68,348.98c4.65,0,7.84-2.42,7.84-6.18s-3.19-6.18-7.84-6.18h-9.31v12.37h9.31Z" style="fill:#010101; stroke-width:0px;"/><path d="M236.79,364.92h-19.51l-2.8,6.88h-10.52l17.85-43.8h10.52l17.85,43.8h-10.58l-2.8-6.88ZM233.53,356.95l-6.5-16-6.5,16h13Z" style="fill:#010101; stroke-width:0px;"/><path d="M258.85,328.01h9.43v43.8h-9.43v-43.8Z" style="fill:#010101; stroke-width:0px;"/><path d="M300.48,347.2h19.38v18.04c-4.4,4.59-11.16,7.33-17.72,7.33-12.69,0-23.46-10.39-23.46-22.7s10.77-22.63,23.46-22.63c6.57,0,13.32,2.74,17.72,7.33l-6.82,6.12c-2.61-3-6.88-4.91-10.9-4.91-7.46,0-13.77,6.5-13.77,14.09s6.31,14.15,13.77,14.15c3,0,6.06-1.02,8.54-2.81v-6.69h-10.2v-7.33Z" style="fill:#010101; stroke-width:0px;"/><path d="M331.53,328.01h9.37l21.1,28.31v-28.31h9.44v43.8h-9.44l-21.1-28.31v28.31h-9.37v-43.8Z" style="fill:#010101; stroke-width:0px;"/><path d="M434.36,364.92h-19.51l-2.8,6.88h-10.52l17.85-43.8h10.52l17.85,43.8h-10.58l-2.81-6.88ZM431.11,356.95l-6.5-16-6.5,16h13Z" style="fill:#010101; stroke-width:0px;"/><path d="M475.29,347.2h19.38v18.04c-4.4,4.59-11.16,7.33-17.72,7.33-12.69,0-23.46-10.39-23.46-22.7s10.77-22.63,23.46-22.63c6.57,0,13.32,2.74,17.72,7.33l-6.82,6.12c-2.61-3-6.88-4.91-10.9-4.91-7.46,0-13.77,6.5-13.77,14.09s6.31,14.15,13.77,14.15c3,0,6.06-1.02,8.54-2.81v-6.69h-10.2v-7.33Z" style="fill:#010101; stroke-width:0px;"/><path d="M535.29,364.92h-19.51l-2.8,6.88h-10.52l17.85-43.8h10.52l17.85,43.8h-10.58l-2.81-6.88ZM532.04,356.95l-6.5-16-6.5,16h13Z" style="fill:#010101; stroke-width:0px;"/><path d="M557.35,328.01h9.43v43.8h-9.43v-43.8Z" style="fill:#010101; stroke-width:0px;"/><path d="M579.28,328.01h9.37l21.1,28.31v-28.31h9.44v43.8h-9.44l-21.1-28.31v28.31h-9.37v-43.8Z" style="fill:#010101; stroke-width:0px;"/><path d="M628.75,365.3l5.42-6.44c4.14,3.57,8.86,5.74,14.41,5.74,4.72,0,7.14-2.17,7.14-4.91,0-3.12-2.55-4.08-9.24-5.61-9.24-2.1-15.81-4.72-15.81-13.2s6.63-13.64,16.19-13.64c7.14,0,12.69,2.23,17.15,6.06l-4.91,6.76c-3.89-3.12-8.29-4.84-12.5-4.84s-6.44,2.1-6.44,4.72c0,3.19,2.61,4.21,9.37,5.74,9.44,2.1,15.68,4.91,15.68,13s-6.31,13.9-17.02,13.9c-7.59,0-14.34-2.55-19.44-7.27Z" style="fill:#010101; stroke-width:0px;"/><path d="M686.71,336.49h-13.64v-8.48h36.72v8.48h-13.64v35.32h-9.44v-35.32Z" style="fill:#010101; stroke-width:0px;"/><path d="M779.34,328.01v43.8h-9.37v-18.11h-19.96v18.11h-9.37v-43.8h9.37v17.21h19.96v-17.21h9.37Z" style="fill:#010101; stroke-width:0px;"/><path d="M791.33,352.87v-24.86h9.37v24.48c0,6.76,4.33,11.54,10.46,11.54s10.39-4.78,10.39-11.54v-24.48h9.44v24.86c0,11.54-8.22,19.7-19.83,19.7s-19.83-8.16-19.83-19.7Z" style="fill:#010101; stroke-width:0px;"/><path d="M843.29,328.01h9.37l21.1,28.31v-28.31h9.44v43.8h-9.44l-21.1-28.31v28.31h-9.37v-43.8Z" style="fill:#010101; stroke-width:0px;"/><path d="M915.72,347.2h19.38v18.04c-4.4,4.59-11.16,7.33-17.72,7.33-12.69,0-23.46-10.39-23.46-22.7s10.77-22.63,23.46-22.63c6.57,0,13.32,2.74,17.72,7.33l-6.82,6.12c-2.61-3-6.88-4.91-10.9-4.91-7.46,0-13.77,6.5-13.77,14.09s6.31,14.15,13.77,14.15c3,0,6.06-1.02,8.54-2.81v-6.69h-10.2v-7.33Z" style="fill:#010101; stroke-width:0px;"/><path d="M955.82,336.49v8.73h21.99v8.48h-21.99v9.63h24.29v8.48h-33.72v-43.8h33.72v8.48h-24.29Z" style="fill:#010101; stroke-width:0px;"/><path d="M1016.96,371.81l-10.01-14.22h-6.95v14.22h-9.37v-43.8h19.7c9.5,0,16.51,6.12,16.51,14.79,0,6.5-3.95,11.6-9.95,13.71l10.77,15.3h-10.71ZM1000,348.98h9.31c4.65,0,7.84-2.42,7.84-6.18s-3.19-6.18-7.84-6.18h-9.31v12.37Z" style="fill:#010101; stroke-width:0px;"/><path d="M60.01,204.83h8.16l24.1,73.44,25.11-73.19h10.42l-31.39,88.51h-8.41l-24.1-71.31-24.23,71.31h-8.29L0,205.09h10.8l25.11,73.19,24.1-73.44Z" style="fill:#010101; stroke-width:0px;"/><path d="M221.83,214.13h-53.61v30h47.96v9.04h-47.96v30.76h54.24v9.04h-64.15v-87.88h63.52v9.04Z" style="fill:#010101; stroke-width:0px;"/><path d="M263.64,232.61c.67,1.68,1.88,3.21,3.64,4.59,1.76,1.38,4.18,2.64,7.28,3.77,3.09,1.13,7.07,2.2,11.93,3.21,9.79,2.18,17.01,5.2,21.66,9.05,4.65,3.86,6.97,9.18,6.97,15.97,0,3.77-.75,7.21-2.23,10.31s-3.54,5.74-6.15,7.92c-2.61,2.18-5.76,3.86-9.44,5.03-3.68,1.17-7.7,1.76-12.05,1.76-7.03,0-13.45-1.14-19.27-3.4-5.82-2.27-11.36-5.78-16.63-10.53l6.15-7.28c4.6,4.19,9.25,7.3,13.94,9.35,4.69,2.05,10.08,3.08,16.2,3.08s10.69-1.38,14.25-4.15c3.56-2.77,5.34-6.41,5.34-10.94,0-2.1-.34-3.96-1.01-5.59-.67-1.63-1.85-3.12-3.52-4.46-1.68-1.34-4.01-2.56-6.98-3.65-2.98-1.09-6.78-2.14-11.39-3.15-5.03-1.09-9.42-2.35-13.15-3.77-3.74-1.42-6.82-3.14-9.25-5.15-2.43-2.01-4.24-4.36-5.41-7.04-1.17-2.68-1.76-5.87-1.76-9.56s.71-6.75,2.13-9.68c1.42-2.93,3.43-5.47,6.03-7.61,2.59-2.14,5.65-3.81,9.16-5.03,3.51-1.22,7.36-1.82,11.55-1.82,6.44,0,12.07.89,16.89,2.66,4.81,1.77,9.48,4.44,14,8.01l-5.78,7.66c-4.1-3.35-8.22-5.77-12.37-7.28-4.14-1.51-8.47-2.26-12.99-2.26-2.85,0-5.42.38-7.72,1.13-2.3.76-4.27,1.76-5.9,3.02-1.63,1.26-2.89,2.77-3.77,4.52-.88,1.76-1.32,3.65-1.32,5.66s.33,3.99,1,5.66Z" style="fill:#010101; stroke-width:0px;"/><path d="M379.14,292.97h-9.92v-78.72h-29.5v-9.17h68.92v9.17h-29.5v78.72Z" style="fill:#010101; stroke-width:0px;"/><path d="M694.19,232.61c.67,1.68,1.88,3.21,3.64,4.59,1.76,1.38,4.18,2.64,7.28,3.77,3.1,1.13,7.07,2.2,11.93,3.21,9.79,2.18,17.01,5.2,21.66,9.05,4.65,3.86,6.97,9.18,6.97,15.97,0,3.77-.75,7.21-2.23,10.31-1.49,3.1-3.54,5.74-6.15,7.92-2.61,2.18-5.76,3.86-9.44,5.03-3.68,1.17-7.7,1.76-12.05,1.76-7.03,0-13.45-1.14-19.27-3.4-5.82-2.27-11.36-5.78-16.63-10.53l6.15-7.28c4.6,4.19,9.25,7.3,13.94,9.35,4.69,2.05,10.09,3.08,16.2,3.08s10.69-1.38,14.25-4.15c3.56-2.77,5.34-6.41,5.34-10.94,0-2.1-.34-3.96-1.01-5.59-.67-1.63-1.85-3.12-3.52-4.46-1.68-1.34-4.01-2.56-6.98-3.65-2.98-1.09-6.78-2.14-11.39-3.15-5.03-1.09-9.42-2.35-13.15-3.77-3.73-1.42-6.82-3.14-9.25-5.15-2.43-2.01-4.24-4.36-5.41-7.04-1.18-2.68-1.76-5.87-1.76-9.56s.71-6.75,2.13-9.68c1.42-2.93,3.43-5.47,6.03-7.61,2.59-2.14,5.65-3.81,9.16-5.03,3.51-1.22,7.36-1.82,11.55-1.82,6.44,0,12.07.89,16.89,2.66,4.81,1.77,9.48,4.44,14,8.01l-5.77,7.66c-4.1-3.35-8.22-5.77-12.37-7.28-4.14-1.51-8.47-2.26-12.99-2.26-2.84,0-5.42.38-7.72,1.13-2.3.76-4.27,1.76-5.9,3.02-1.63,1.26-2.89,2.77-3.77,4.52-.88,1.76-1.32,3.65-1.32,5.66s.33,3.99,1,5.66Z" style="fill:#010101; stroke-width:0px;"/><path d="M798.27,205.09v87.88h-9.92v-87.88h9.92Z" style="fill:#010101; stroke-width:0px;"/><path d="M919.42,266.29c-2.26,5.4-5.46,10.06-9.6,14-4.14,3.94-9.08,7.03-14.82,9.29-5.73,2.26-12.03,3.39-18.89,3.39h-30.51v-87.88h30.51c6.86,0,13.16,1.11,18.89,3.33,5.73,2.22,10.67,5.3,14.82,9.23,4.14,3.93,7.34,8.58,9.6,13.94,2.26,5.36,3.39,11.13,3.39,17.33s-1.13,11.99-3.39,17.39ZM909.94,235.47c-1.72-4.27-4.14-7.97-7.28-11.11-3.14-3.14-6.97-5.61-11.49-7.41-4.52-1.8-9.54-2.7-15.07-2.7h-20.59v69.55h20.59c5.52,0,10.55-.88,15.07-2.64,4.52-1.76,8.35-4.21,11.49-7.34,3.14-3.14,5.56-6.8,7.28-10.99,1.71-4.18,2.57-8.74,2.57-13.68s-.86-9.42-2.57-13.68Z" style="fill:#010101; stroke-width:0px;"/><path d="M1028.89,214.13h-53.61v30h47.96v9.04h-47.96v30.76h54.23v9.04h-64.15v-87.88h63.52v9.04Z" style="fill:#010101; stroke-width:0px;"/></svg>